<svg xmlns="http://www.w3.org/2000/svg" width="28" height="62" fill="none" viewBox="0 0 28 62">
  <path stroke="#fff" stroke-miterlimit="10" stroke-width=".5" d="M14.08 41.438c-7.36 0-13.6-6.122-13.6-13.342V13.813C.48 6.593 6.72.47 14.08.47c7.36 0 13.6 6.121 13.6 13.342v14.44c-.16 7.22-6.24 13.185-13.6 13.185zM46.4 41.281c-7.36 0-13.6-6.121-13.6-13.342V13.656C32.8 6.436 39.04.314 46.4.314 53.76.314 60 6.435 60 13.656v14.44c-.16 7.22-6.24 13.185-13.6 13.185z"/>
  <path fill="#fff" d="M15.04 50.228a1.11 1.11 0 001.12-1.099 1.11 1.11 0 00-1.12-1.099 1.11 1.11 0 00-1.12 1.1 1.11 1.11 0 001.12 1.098zM15.04 62a1.11 1.11 0 001.12-1.099 1.11 1.11 0 00-1.12-1.098 1.11 1.11 0 00-1.12 1.098 1.11 1.11 0 001.12 1.1zM15.04 56.506c1.149 0 2.08-.913 2.08-2.04s-.931-2.04-2.08-2.04-2.08.913-2.08 2.04.931 2.04 2.08 2.04z"/>
  <ellipse cx="14.499" cy="18.5" fill="#fff" rx="1.5" ry="2.5"/>
</svg>
