<svg xmlns="http://www.w3.org/2000/svg" width="30" height="22" fill="none" viewBox="0 0 30 22">
  <path fill="#fff" d="M29.59 3.039c-.964.43-2.169.646-3.374.862A5.725 5.725 0 0028.867.884c-1.205.646-2.41 1.077-3.855 1.293C23.807 1.099 22.36.453 20.674.453c-3.855 0-6.747 3.232-5.783 6.68-5.06-.216-9.398-2.37-12.53-5.603C.672 3.9 1.636 7.132 4.287 8.64c-.964 0-1.928-.215-2.65-.646 0 2.586 1.927 4.74 4.819 5.387-.964.216-1.687.216-2.65 0 .722 2.155 2.89 3.663 5.541 3.663-2.65 1.724-5.783 2.586-8.916 2.155 2.651 1.508 5.784 2.37 9.157 2.37 11.326 0 17.591-8.403 17.11-16.16 1.204-.431 2.168-1.293 2.891-2.37z"/>
</svg>
