<svg xmlns="http://www.w3.org/2000/svg" width="28" height="26" fill="none" viewBox="0 0 28 26">
  <path fill="#fff" d="M13.668 2.837h5.617c3.744.217 5.382 1.733 5.616 5.2V18.44c-.234 3.468-1.872 4.985-5.616 5.201H8.052c-3.745-.216-5.383-1.733-5.617-5.2v-5.201-5.201C2.67 4.57 4.307 3.054 8.052 2.837h5.616zm0-2.384H8.052C3.137.67.329 3.27.095 7.821V18.223c.234 4.55 3.042 7.151 7.957 7.368h11.233c4.914-.217 7.723-2.818 7.957-7.368v-5.201-5.2C27.008 3.27 24.199.67 19.285.452c-1.638.217-2.106 0-5.617 0zm0 6.285c-3.978 0-7.02 2.817-7.02 6.5 0 3.685 3.042 6.502 7.02 6.502 3.979 0 7.021-2.817 7.021-6.501s-3.276-6.501-7.02-6.501zm0 10.618c-2.574 0-4.446-1.95-4.446-4.117 0-2.384 2.106-4.118 4.446-4.118s4.447 1.95 4.447 4.118c0 2.167-2.106 4.117-4.447 4.117zm7.255-12.352c-.936 0-1.638.65-1.638 1.517 0 .867.702 1.517 1.638 1.517.936 0 1.638-.65 1.638-1.517 0-.867-.702-1.517-1.638-1.517z"/>
</svg>
