<svg xmlns="http://www.w3.org/2000/svg" width="51" height="47" fill="none" viewBox="0 0 51 47">
  <path fill="#3082B5" d="M39.12 27.829c-4.67-1.954-5.137-2.171-5.604-1.52-.467.651-1.635 1.954-1.868 2.17-.467.435-.7.435-1.401.218-.7-.217-2.569-.868-4.904-2.822-1.868-1.52-3.035-3.473-3.502-3.907-.7-1.086.7-1.086 1.868-3.256.233-.435 0-.652 0-1.086-.233-.217-1.401-3.039-1.868-4.341-.467-1.086-.934-1.086-1.401-1.086-1.168 0-2.101 0-2.802.652-3.269 3.473-2.568 6.946.467 10.636 5.604 6.947 8.64 8.032 14.243 9.769a8.36 8.36 0 003.97.217c1.167-.217 3.736-1.303 4.203-2.822.467-1.303.467-2.388.467-2.822-.7.434-1.168.434-1.868 0z"/>
  <path fill="#3082B5" d="M43.658 6.773C27.78-7.554 1.16 2.866 1.16 23.053c0 4.125 1.168 8.032 3.27 11.505L.927 46.498l13.076-3.257c16.344 8.249 36.659-2.605 36.659-20.188.233-6.078-2.335-11.722-7.005-16.28zm3.035 16.28c0 14.761-17.512 23.878-31.288 16.498l-.7-.434-7.706 1.953L9.1 34.124l-.467-.651C-.007 20.883 9.801 4.168 26.145 4.168c5.604 0 10.741 1.954 14.477 5.644 3.97 3.473 6.071 8.249 6.071 13.241z"/>
</svg>
